# xmcd
#
# Track frame offsets:
#	150
#	13669
#	37858
#	55137
#	69196
#	87899
#	103953
#	116852
#	133693
#	146181
#	163574
#	186722
#	202459
#	216306
#	231427
#	250291
#	267157
#	293586
#	311014
#	329197
#
# Disc length: 4650 seconds
#
# Revision: 1
# Processed by: cddbd v1.5.2PL0 Copyright (c) Steve Scherf et al.
# Submitted via: audiograbber 1.83.01
#
DISCID=45122814
DTITLE=Various Artist - Bluesfest 2011 Disc1
DYEAR=2011
DGENRE=Blues
TTITLE0=Elvis Costello - Olivers Army
TTITLE1=BB King - The Thrill Is Gone
TTITLE2=ZZ Top - La Grange
TTITLE3=Ben Harper - Number With No Name
TTITLE4=The Cat Empire - Falling
TTITLE5=Eli Reed - Come And Get It
TTITLE6=Irma Thomas - Time Is On My Side
TTITLE7=Tony Joe White - Polk Salad Annie
TTITLE8=Thrombone Shorty - Backatown
TTITLE9=Ray Beadle - Aint Going Out Like That
TTITLE10=Leon Russell - It's A Hard Rains A-Gonna Fall
TTITLE11=Robert Randolph - Aint Nothing Wrong With That
TTITLE12=Wolfmother - White Feather
TTITLE13=Washington - Sundays Best
TTITLE14=Imogen Heap - First Train Home
TTITLE15=Salt Water Band - Compass
TTITLE16=Geoffery Gurrumul Yunupingu - I Was Born Blind
TTITLE17=C W Stoneking - The Love Me Or Die
TTITLE18=Indigo Girls - Closer To Fine
TTITLE19=Niel Murray - Burning Land
EXTD=
EXTT0=
EXTT1=
EXTT2=
EXTT3=
EXTT4=
EXTT5=
EXTT6=
EXTT7=
EXTT8=
EXTT9=
EXTT10=
EXTT11=
EXTT12=
EXTT13=
EXTT14=
EXTT15=
EXTT16=
EXTT17=
EXTT18=
EXTT19=
PLAYORDER=
